<?xml version="1.0" encoding="UTF-8"?>
<svg width="38px" height="46px" viewBox="0 0 38 46" version="1.1" xmlns="http://www.w3.org/2000/svg" xmlns:xlink="http://www.w3.org/1999/xlink">
    <!-- Generator: Sketch 43.1 (39012) - http://www.bohemiancoding.com/sketch -->
    <title>logo-sq</title>
    <desc>Created with Sketch.</desc>
    <defs></defs>
    <g id="Page-1" stroke="none" stroke-width="1" fill="none" fill-rule="evenodd">
        <path d="M37.792,36.864 C37.792,41.472 34.432,45.024 29.536,45.024 C24.544,45.024 21.664,41.856 21.664,38.64 L21.664,36.48 C20.512,36.672 19.792,36.72 18.64,36.72 C8.752,36.72 0.832,28.704 0.832,18.576 C0.832,8.4 8.656,0.624 18.976,0.624 C28.96,0.624 36.928,8.592 36.928,18.576 C36.928,24.768 33.856,30.528 28.768,33.888 C30.16,39.216 31.36,40.56 32.848,40.56 C34.336,40.56 34.96,39.552 35.2,36.864 L37.792,36.864 Z M27.328,18.24 C27.328,9.84 24.976,3.12 18.88,3.12 C13.312,3.12 10.432,8.112 10.432,17.808 C10.432,21.792 10.768,24.864 11.44,26.928 C12.784,23.472 15.04,22.08 18.352,22.08 C21.952,22.08 24.688,23.952 26.128,27.6 C26.896,25.584 27.328,22.08 27.328,18.24 Z M21.904,31.2 C21.904,27.072 20.368,24.816 17.584,24.816 C15.088,24.816 13.36,26.832 13.36,29.664 C13.36,32.4 15.52,34.224 18.736,34.224 C19.888,34.224 20.512,34.08 21.76,33.456 C21.856,32.4 21.904,31.68 21.904,31.2 Z" id="Q" fill="#000000"></path>
    </g>
</svg>