<?xml version="1.0" encoding="UTF-8"?>
<svg width="215px" height="90px" viewBox="0 0 215 90" version="1.1" xmlns="http://www.w3.org/2000/svg" xmlns:xlink="http://www.w3.org/1999/xlink">
    <!-- Generator: Sketch 54.1 (76490) - https://sketchapp.com -->
    <title>Untitled 5</title>
    <desc>Created with Sketch.</desc>
    <g id="Page-1" stroke="none" stroke-width="1" fill="none" fill-rule="evenodd">
        <g id="logo-horizontal" fill="#000000" fill-rule="nonzero">
            <path d="M38.064,18.288 C38.064,24.864 35.712,30.096 31.44,33.072 C28.464,35.136 24.624,36 18.576,36 L0.912,36 L0.912,33.408 L1.632,33.408 C4.128,33.408 5.136,33.216 5.568,32.688 C5.904,32.304 5.904,32.112 5.904,29.088 L5.904,8.256 C5.904,5.232 5.904,5.04 5.568,4.656 C5.136,4.128 4.128,3.936 1.632,3.936 L0.912,3.936 L0.912,1.344 L18,1.344 C24.768,1.344 28.32,2.016 31.2,3.936 C35.712,6.912 38.064,11.856 38.064,18.288 Z M28.512,18.192 C28.512,8.592 25.296,3.936 18.624,3.936 L17.424,3.936 C15.12,3.936 14.544,4.512 14.544,6.816 L14.544,30.288 C14.544,32.832 15.072,33.408 17.424,33.408 L18.432,33.408 C25.584,33.408 28.512,28.752 28.512,18.192 Z M71,35.472 L59.816,36 L59.816,32.064 C57.032,35.472 54.728,36.72 51.32,36.72 C48.056,36.72 45.512,35.232 44.216,32.592 C43.544,31.248 43.448,30.384 43.448,26.832 L43.448,20.736 C43.4,16.176 43.352,16.08 40.376,16.08 L39.608,16.08 L39.608,13.632 L50.984,13.296 L50.984,27.12 C50.984,30.768 51.992,32.256 54.392,32.256 C56.216,32.256 57.896,31.152 58.664,29.52 C59.288,28.32 59.48,26.976 59.48,24.576 L59.48,20.736 C59.48,16.272 59.336,16.08 56.408,16.08 L55.64,16.08 L55.64,13.632 L67.016,13.296 L67.016,30.816 C67.016,32.544 67.4,32.88 69.656,32.88 L71,32.88 L71,35.472 Z M100.24,24.24 C100.24,31.632 95.248,36.72 87.952,36.72 C84.352,36.72 81.904,35.568 79.648,32.832 L76.528,36.672 L74.176,36.672 C74.656,34.032 74.848,30.768 74.848,26.112 L74.848,8.256 C74.848,3.984 74.704,3.792 71.776,3.792 L70.864,3.792 L70.864,1.344 L82.384,0.624 L82.384,16.176 C84.352,13.68 86.608,12.576 89.824,12.576 C95.92,12.576 100.24,17.424 100.24,24.24 Z M91.936,24.816 C91.936,19.056 90.448,16.176 87.424,16.176 C84.064,16.176 82.336,19.44 82.336,25.824 C82.336,31.248 84.016,34.224 87.184,34.224 C90.304,34.224 91.936,31.008 91.936,24.816 Z M116.856,36 L116.856,33.552 L116.184,33.552 C115.272,33.552 114.312,33.408 113.976,33.216 C113.4,32.928 113.256,32.544 113.256,31.344 L113.256,0.624 L101.736,1.344 L101.736,3.792 L102.648,3.792 C105.576,3.792 105.72,3.984 105.72,8.256 L105.72,31.344 C105.72,33.264 105.672,33.552 102.552,33.552 L101.88,33.552 L101.88,36 L116.856,36 Z M133.232,36 L133.232,33.552 L132.464,33.552 C129.536,33.552 129.488,33.216 129.488,31.344 L129.488,13.296 L118.208,13.632 L118.208,16.08 L118.88,16.08 C121.808,16.08 121.952,16.32 121.952,20.592 L121.952,31.296 C121.952,33.216 121.904,33.552 118.88,33.552 L118.208,33.552 L118.208,36 L133.232,36 Z M129.104,5.76 C129.104,3.936 127.568,2.4 125.744,2.4 C123.872,2.4 122.336,3.936 122.336,5.76 C122.336,7.632 123.872,9.168 125.696,9.168 C127.568,9.168 129.104,7.68 129.104,5.76 Z M165.688,36 L165.688,33.552 L165.016,33.552 C161.944,33.552 161.896,33.264 161.896,31.296 L161.896,21.072 C161.896,18.096 161.368,16.272 160.072,14.88 C158.776,13.392 156.616,12.576 154.12,12.576 C150.328,12.576 147.928,13.968 145.576,17.52 L145.576,13.296 L134.584,13.632 L134.584,16.08 L135.304,16.08 C138.232,16.08 138.376,16.272 138.376,20.736 L138.376,31.296 C138.376,33.264 138.328,33.552 135.256,33.552 L134.584,33.552 L134.584,36 L149.224,36 L149.224,33.552 C146.392,33.552 145.912,33.216 145.912,31.344 L145.912,24.432 C145.912,22.272 146.104,21.024 146.68,19.872 C147.448,18.144 149.128,17.04 150.856,17.04 C153.112,17.04 154.36,18.672 154.36,21.744 L154.36,31.344 C154.36,33.216 153.88,33.552 151.048,33.552 L151.048,36 L165.688,36 Z M19.672,80.376 L19.672,77.784 L18.952,77.784 C16.456,77.784 15.4,77.592 14.968,77.064 C14.632,76.68 14.632,76.536 14.632,73.464 L14.632,52.632 C14.632,49.56 14.632,49.416 14.968,49.032 C15.4,48.504 16.456,48.312 18.952,48.312 L19.672,48.312 L19.672,45.72 L1,45.72 L1,48.312 L1.72,48.312 C4.216,48.312 5.224,48.504 5.656,49.032 C5.992,49.416 5.992,49.608 5.992,52.632 L5.992,73.464 C5.992,76.488 5.992,76.68 5.656,77.064 C5.224,77.592 4.216,77.784 1.72,77.784 L1,77.784 L1,80.376 L19.672,80.376 Z M52.032,80.376 L52.032,77.928 L51.36,77.928 C48.288,77.928 48.24,77.64 48.24,75.672 L48.24,65.448 C48.24,62.472 47.712,60.648 46.416,59.256 C45.12,57.768 42.96,56.952 40.464,56.952 C36.672,56.952 34.272,58.344 31.92,61.896 L31.92,57.672 L20.928,58.008 L20.928,60.456 L21.648,60.456 C24.576,60.456 24.72,60.648 24.72,65.112 L24.72,75.672 C24.72,77.64 24.672,77.928 21.6,77.928 L20.928,77.928 L20.928,80.376 L35.568,80.376 L35.568,77.928 C32.736,77.928 32.256,77.592 32.256,75.72 L32.256,68.808 C32.256,66.648 32.448,65.4 33.024,64.248 C33.792,62.52 35.472,61.416 37.2,61.416 C39.456,61.416 40.704,63.048 40.704,66.12 L40.704,75.72 C40.704,77.592 40.224,77.928 37.392,77.928 L37.392,80.376 L52.032,80.376 Z M90.632,81.24 C90.632,85.848 87.272,89.4 82.376,89.4 C77.384,89.4 74.504,86.232 74.504,83.016 L74.504,80.856 C73.352,81.048 72.632,81.096 71.48,81.096 C61.592,81.096 53.672,73.08 53.672,62.952 C53.672,52.776 61.496,45 71.816,45 C81.8,45 89.768,52.968 89.768,62.952 C89.768,69.144 86.696,74.904 81.608,78.264 C83,83.592 84.2,84.936 85.688,84.936 C87.176,84.936 87.8,83.928 88.04,81.24 L90.632,81.24 Z M80.168,62.616 C80.168,54.216 77.816,47.496 71.72,47.496 C66.152,47.496 63.272,52.488 63.272,62.184 C63.272,66.168 63.608,69.24 64.28,71.304 C65.624,67.848 67.88,66.456 71.192,66.456 C74.792,66.456 77.528,68.328 78.968,71.976 C79.736,69.96 80.168,66.456 80.168,62.616 Z M74.744,75.576 C74.744,71.448 73.208,69.192 70.424,69.192 C67.928,69.192 66.2,71.208 66.2,74.04 C66.2,76.776 68.36,78.6 71.576,78.6 C72.728,78.6 73.352,78.456 74.6,77.832 C74.696,76.776 74.744,76.056 74.744,75.576 Z M122.848,79.848 L122.848,77.256 L121.504,77.256 C119.248,77.256 118.864,76.92 118.864,75.192 L118.864,57.672 L107.488,58.008 L107.488,60.456 L108.256,60.456 C111.184,60.456 111.328,60.648 111.328,65.112 L111.328,68.952 C111.328,71.352 111.136,72.696 110.512,73.896 C109.744,75.528 108.064,76.632 106.24,76.632 C103.84,76.632 102.832,75.144 102.832,71.496 L102.832,57.672 L91.456,58.008 L91.456,60.456 L92.224,60.456 C95.2,60.456 95.248,60.552 95.296,65.112 L95.296,71.208 C95.296,74.76 95.392,75.624 96.064,76.968 C97.36,79.608 99.904,81.096 103.168,81.096 C106.576,81.096 108.88,79.848 111.664,76.44 L111.664,80.376 L122.848,79.848 Z M139.08,80.376 L139.08,77.928 L138.312,77.928 C135.384,77.928 135.336,77.592 135.336,75.72 L135.336,57.672 L124.056,58.008 L124.056,60.456 L124.728,60.456 C127.656,60.456 127.8,60.696 127.8,64.968 L127.8,75.672 C127.8,77.592 127.752,77.928 124.728,77.928 L124.056,77.928 L124.056,80.376 L139.08,80.376 Z M134.952,50.136 C134.952,48.312 133.416,46.776 131.592,46.776 C129.72,46.776 128.184,48.312 128.184,50.136 C128.184,52.008 129.72,53.544 131.544,53.544 C133.416,53.544 134.952,52.056 134.952,50.136 Z M164.288,61.8 C164.288,59.016 162.08,56.952 159.008,56.952 C155.312,56.952 152.768,59.064 151.04,63.48 L151.04,57.672 L140.336,58.008 L140.336,60.456 L141.056,60.456 C143.984,60.456 144.128,60.648 144.128,65.112 L144.128,75.672 C144.128,77.64 144.08,77.928 141.008,77.928 L140.336,77.928 L140.336,80.376 L156.368,80.376 L156.368,77.928 L155.312,77.928 C152.24,77.928 151.712,77.64 151.712,75.672 L151.712,72.504 C151.712,69.144 152.528,65.352 153.728,63.24 C154.736,61.464 155.744,60.6 157.376,60.12 C156.752,60.984 156.56,61.512 156.56,62.376 C156.56,64.44 158.096,65.928 160.16,65.928 C162.512,65.928 164.288,64.152 164.288,61.8 Z M189.304,73.464 C187.192,78.6 183.496,81.096 177.88,81.096 C169.912,81.096 164.92,76.152 164.92,69.24 C164.92,62.328 170.392,56.952 177.832,56.952 C184.84,56.952 189.304,61.512 189.304,68.664 L189.304,69.432 L173.224,69.432 C173.224,75.576 176.056,77.832 179.752,77.832 C182.872,77.832 185.032,76.248 186.952,72.504 L189.304,73.464 Z M181.768,65.256 C181.768,61.464 180.424,59.448 177.976,59.448 C175.096,59.448 173.272,62.232 173.272,66.792 L180.472,66.792 C181.432,66.792 181.768,66.408 181.768,65.256 Z M214.752,61.8 C214.752,59.016 212.544,56.952 209.472,56.952 C205.776,56.952 203.232,59.064 201.504,63.48 L201.504,57.672 L190.8,58.008 L190.8,60.456 L191.52,60.456 C194.448,60.456 194.592,60.648 194.592,65.112 L194.592,75.672 C194.592,77.64 194.544,77.928 191.472,77.928 L190.8,77.928 L190.8,80.376 L206.832,80.376 L206.832,77.928 L205.776,77.928 C202.704,77.928 202.176,77.64 202.176,75.672 L202.176,72.504 C202.176,69.144 202.992,65.352 204.192,63.24 C205.2,61.464 206.208,60.6 207.84,60.12 C207.216,60.984 207.024,61.512 207.024,62.376 C207.024,64.44 208.56,65.928 210.624,65.928 C212.976,65.928 214.752,64.152 214.752,61.8 Z" id="Shape"></path>
        </g>
    </g>
</svg>