<?xml version="1.0" encoding="UTF-8"?>
<svg width="215px" height="94px" viewBox="0 0 215 94" version="1.1" xmlns="http://www.w3.org/2000/svg" xmlns:xlink="http://www.w3.org/1999/xlink">
    <g>
        <path d="M62.312,18.288 C62.312,24.864 59.96,30.096 55.688,33.072 C52.712,35.136 48.872,36 42.824,36 L25.16,36 L25.16,33.408 L25.88,33.408 C28.376,33.408 29.384,33.216 29.816,32.688 C30.152,32.304 30.152,32.112 30.152,29.088 L30.152,8.256 C30.152,5.232 30.152,5.04 29.816,4.656 C29.384,4.128 28.376,3.936 25.88,3.936 L25.16,3.936 L25.16,1.344 L42.248,1.344 C49.016,1.344 52.568,2.016 55.448,3.936 C59.96,6.912 62.312,11.856 62.312,18.288 Z M52.76,18.192 C52.76,8.592 49.544,3.936 42.872,3.936 L41.672,3.936 C39.368,3.936 38.792,4.512 38.792,6.816 L38.792,30.288 C38.792,32.832 39.32,33.408 41.672,33.408 L42.68,33.408 C49.832,33.408 52.76,28.752 52.76,18.192 Z M95.248,35.472 L84.064,36 L84.064,32.064 C81.28,35.472 78.976,36.72 75.568,36.72 C72.304,36.72 69.76,35.232 68.464,32.592 C67.792,31.248 67.696,30.384 67.696,26.832 L67.696,20.736 C67.648,16.176 67.6,16.08 64.624,16.08 L63.856,16.08 L63.856,13.632 L75.232,13.296 L75.232,27.12 C75.232,30.768 76.24,32.256 78.64,32.256 C80.464,32.256 82.144,31.152 82.912,29.52 C83.536,28.32 83.728,26.976 83.728,24.576 L83.728,20.736 C83.728,16.272 83.584,16.08 80.656,16.08 L79.888,16.08 L79.888,13.632 L91.264,13.296 L91.264,30.816 C91.264,32.544 91.648,32.88 93.904,32.88 L95.248,32.88 L95.248,35.472 Z M124.488,24.24 C124.488,31.632 119.496,36.72 112.2,36.72 C108.6,36.72 106.152,35.568 103.896,32.832 L100.776,36.672 L98.424,36.672 C98.904,34.032 99.096,30.768 99.096,26.112 L99.096,8.256 C99.096,3.984 98.952,3.792 96.024,3.792 L95.112,3.792 L95.112,1.344 L106.632,0.624 L106.632,16.176 C108.6,13.68 110.856,12.576 114.072,12.576 C120.168,12.576 124.488,17.424 124.488,24.24 Z M116.184,24.816 C116.184,19.056 114.696,16.176 111.672,16.176 C108.312,16.176 106.584,19.44 106.584,25.824 C106.584,31.248 108.264,34.224 111.432,34.224 C114.552,34.224 116.184,31.008 116.184,24.816 Z M141.104,36 L141.104,33.552 L140.432,33.552 C139.52,33.552 138.56,33.408 138.224,33.216 C137.648,32.928 137.504,32.544 137.504,31.344 L137.504,0.624 L125.984,1.344 L125.984,3.792 L126.896,3.792 C129.824,3.792 129.968,3.984 129.968,8.256 L129.968,31.344 C129.968,33.264 129.92,33.552 126.8,33.552 L126.128,33.552 L126.128,36 L141.104,36 Z M157.48,36 L157.48,33.552 L156.712,33.552 C153.784,33.552 153.736,33.216 153.736,31.344 L153.736,13.296 L142.456,13.632 L142.456,16.08 L143.128,16.08 C146.056,16.08 146.2,16.32 146.2,20.592 L146.2,31.296 C146.2,33.216 146.152,33.552 143.128,33.552 L142.456,33.552 L142.456,36 L157.48,36 Z M153.352,5.76 C153.352,3.936 151.816,2.4 149.992,2.4 C148.12,2.4 146.584,3.936 146.584,5.76 C146.584,7.632 148.12,9.168 149.944,9.168 C151.816,9.168 153.352,7.68 153.352,5.76 Z M189.936,36 L189.936,33.552 L189.264,33.552 C186.192,33.552 186.144,33.264 186.144,31.296 L186.144,21.072 C186.144,18.096 185.616,16.272 184.32,14.88 C183.024,13.392 180.864,12.576 178.368,12.576 C174.576,12.576 172.176,13.968 169.824,17.52 L169.824,13.296 L158.832,13.632 L158.832,16.08 L159.552,16.08 C162.48,16.08 162.624,16.272 162.624,20.736 L162.624,31.296 C162.624,33.264 162.576,33.552 159.504,33.552 L158.832,33.552 L158.832,36 L173.472,36 L173.472,33.552 C170.64,33.552 170.16,33.216 170.16,31.344 L170.16,24.432 C170.16,22.272 170.352,21.024 170.928,19.872 C171.696,18.144 173.376,17.04 175.104,17.04 C177.36,17.04 178.608,18.672 178.608,21.744 L178.608,31.344 C178.608,33.216 178.128,33.552 175.296,33.552 L175.296,36 L189.936,36 Z M19.42,84 L19.42,81.408 L18.7,81.408 C16.204,81.408 15.148,81.216 14.716,80.688 C14.38,80.304 14.38,80.16 14.38,77.088 L14.38,56.256 C14.38,53.184 14.38,53.04 14.716,52.656 C15.148,52.128 16.204,51.936 18.7,51.936 L19.42,51.936 L19.42,49.344 L0.748,49.344 L0.748,51.936 L1.468,51.936 C3.964,51.936 4.972,52.128 5.404,52.656 C5.74,53.04 5.74,53.232 5.74,56.256 L5.74,77.088 C5.74,80.112 5.74,80.304 5.404,80.688 C4.972,81.216 3.964,81.408 1.468,81.408 L0.748,81.408 L0.748,84 L19.42,84 Z M51.78,84 L51.78,81.552 L51.108,81.552 C48.036,81.552 47.988,81.264 47.988,79.296 L47.988,69.072 C47.988,66.096 47.46,64.272 46.164,62.88 C44.868,61.392 42.708,60.576 40.212,60.576 C36.42,60.576 34.02,61.968 31.668,65.52 L31.668,61.296 L20.676,61.632 L20.676,64.08 L21.396,64.08 C24.324,64.08 24.468,64.272 24.468,68.736 L24.468,79.296 C24.468,81.264 24.42,81.552 21.348,81.552 L20.676,81.552 L20.676,84 L35.316,84 L35.316,81.552 C32.484,81.552 32.004,81.216 32.004,79.344 L32.004,72.432 C32.004,70.272 32.196,69.024 32.772,67.872 C33.54,66.144 35.22,65.04 36.948,65.04 C39.204,65.04 40.452,66.672 40.452,69.744 L40.452,79.344 C40.452,81.216 39.972,81.552 37.14,81.552 L37.14,84 L51.78,84 Z M90.38,84.864 C90.38,89.472 87.02,93.024 82.124,93.024 C77.132,93.024 74.252,89.856 74.252,86.64 L74.252,84.48 C73.1,84.672 72.38,84.72 71.228,84.72 C61.34,84.72 53.42,76.704 53.42,66.576 C53.42,56.4 61.244,48.624 71.564,48.624 C81.548,48.624 89.516,56.592 89.516,66.576 C89.516,72.768 86.444,78.528 81.356,81.888 C82.748,87.216 83.948,88.56 85.436,88.56 C86.924,88.56 87.548,87.552 87.788,84.864 L90.38,84.864 Z M79.916,66.24 C79.916,57.84 77.564,51.12 71.468,51.12 C65.9,51.12 63.02,56.112 63.02,65.808 C63.02,69.792 63.356,72.864 64.028,74.928 C65.372,71.472 67.628,70.08 70.94,70.08 C74.54,70.08 77.276,71.952 78.716,75.6 C79.484,73.584 79.916,70.08 79.916,66.24 Z M74.492,79.2 C74.492,75.072 72.956,72.816 70.172,72.816 C67.676,72.816 65.948,74.832 65.948,77.664 C65.948,80.4 68.108,82.224 71.324,82.224 C72.476,82.224 73.1,82.08 74.348,81.456 C74.444,80.4 74.492,79.68 74.492,79.2 Z M122.596,83.472 L122.596,80.88 L121.252,80.88 C118.996,80.88 118.612,80.544 118.612,78.816 L118.612,61.296 L107.236,61.632 L107.236,64.08 L108.004,64.08 C110.932,64.08 111.076,64.272 111.076,68.736 L111.076,72.576 C111.076,74.976 110.884,76.32 110.26,77.52 C109.492,79.152 107.812,80.256 105.988,80.256 C103.588,80.256 102.58,78.768 102.58,75.12 L102.58,61.296 L91.204,61.632 L91.204,64.08 L91.972,64.08 C94.948,64.08 94.996,64.176 95.044,68.736 L95.044,74.832 C95.044,78.384 95.14,79.248 95.812,80.592 C97.108,83.232 99.652,84.72 102.916,84.72 C106.324,84.72 108.628,83.472 111.412,80.064 L111.412,84 L122.596,83.472 Z M138.828,84 L138.828,81.552 L138.06,81.552 C135.132,81.552 135.084,81.216 135.084,79.344 L135.084,61.296 L123.804,61.632 L123.804,64.08 L124.476,64.08 C127.404,64.08 127.548,64.32 127.548,68.592 L127.548,79.296 C127.548,81.216 127.5,81.552 124.476,81.552 L123.804,81.552 L123.804,84 L138.828,84 Z M134.7,53.76 C134.7,51.936 133.164,50.4 131.34,50.4 C129.468,50.4 127.932,51.936 127.932,53.76 C127.932,55.632 129.468,57.168 131.292,57.168 C133.164,57.168 134.7,55.68 134.7,53.76 Z M164.036,65.424 C164.036,62.64 161.828,60.576 158.756,60.576 C155.06,60.576 152.516,62.688 150.788,67.104 L150.788,61.296 L140.084,61.632 L140.084,64.08 L140.804,64.08 C143.732,64.08 143.876,64.272 143.876,68.736 L143.876,79.296 C143.876,81.264 143.828,81.552 140.756,81.552 L140.084,81.552 L140.084,84 L156.116,84 L156.116,81.552 L155.06,81.552 C151.988,81.552 151.46,81.264 151.46,79.296 L151.46,76.128 C151.46,72.768 152.276,68.976 153.476,66.864 C154.484,65.088 155.492,64.224 157.124,63.744 C156.5,64.608 156.308,65.136 156.308,66 C156.308,68.064 157.844,69.552 159.908,69.552 C162.26,69.552 164.036,67.776 164.036,65.424 Z M189.052,77.088 C186.94,82.224 183.244,84.72 177.628,84.72 C169.66,84.72 164.668,79.776 164.668,72.864 C164.668,65.952 170.14,60.576 177.58,60.576 C184.588,60.576 189.052,65.136 189.052,72.288 L189.052,73.056 L172.972,73.056 C172.972,79.2 175.804,81.456 179.5,81.456 C182.62,81.456 184.78,79.872 186.7,76.128 L189.052,77.088 Z M181.516,68.88 C181.516,65.088 180.172,63.072 177.724,63.072 C174.844,63.072 173.02,65.856 173.02,70.416 L180.22,70.416 C181.18,70.416 181.516,70.032 181.516,68.88 Z M214.5,65.424 C214.5,62.64 212.292,60.576 209.22,60.576 C205.524,60.576 202.98,62.688 201.252,67.104 L201.252,61.296 L190.548,61.632 L190.548,64.08 L191.268,64.08 C194.196,64.08 194.34,64.272 194.34,68.736 L194.34,79.296 C194.34,81.264 194.292,81.552 191.22,81.552 L190.548,81.552 L190.548,84 L206.58,84 L206.58,81.552 L205.524,81.552 C202.452,81.552 201.924,81.264 201.924,79.296 L201.924,76.128 C201.924,72.768 202.74,68.976 203.94,66.864 C204.948,65.088 205.956,64.224 207.588,63.744 C206.964,64.608 206.772,65.136 206.772,66 C206.772,68.064 208.308,69.552 210.372,69.552 C212.724,69.552 214.5,67.776 214.5,65.424 Z" id="Dublin-InQuirer" fill="#FFFFFF"></path>
    </g>
</svg>
