<?xml version="1.0" standalone="no"?>
<!DOCTYPE svg PUBLIC "-//W3C//DTD SVG 20010904//EN"
 "http://www.w3.org/TR/2001/REC-SVG-20010904/DTD/svg10.dtd">
<svg version="1.0" xmlns="http://www.w3.org/2000/svg"
 width="700.000000pt" height="700.000000pt" viewBox="0 0 700.000000 700.000000"
 preserveAspectRatio="xMidYMid meet">
<metadata>
Created by potrace 1.11, written by Peter Selinger 2001-2013
</metadata>
<g transform="translate(0.000000,700.000000) scale(0.100000,-0.100000)"
fill="#000000" stroke="none">
<path d="M3435 5423 c-110 -7 -240 -27 -330 -50 -55 -14 -110 -27 -123 -30
-12 -3 -25 -9 -28 -14 -3 -5 -12 -9 -20 -9 -21 0 -168 -68 -249 -115 -263
-154 -491 -404 -613 -675 -41 -91 -79 -196 -92 -255 -7 -27 -14 -59 -16 -70
-7 -28 -22 -122 -29 -175 -10 -74 -7 -323 4 -386 6 -33 13 -75 16 -94 2 -19 9
-53 15 -75 6 -22 13 -50 15 -62 14 -63 73 -210 122 -304 291 -556 860 -877
1483 -837 58 3 117 9 131 11 l27 5 1 -121 c1 -131 2 -142 25 -221 27 -92 122
-216 213 -278 65 -44 179 -93 243 -104 14 -3 32 -7 40 -10 35 -14 248 -13 320
1 239 46 435 206 517 423 29 77 50 180 49 237 l-1 39 -108 1 c-60 0 -110 -2
-112 -5 -2 -3 -6 -29 -10 -59 -26 -204 -116 -292 -257 -249 -78 23 -169 160
-232 348 -19 58 -66 218 -66 226 0 1 18 13 40 28 43 28 66 47 139 111 293 257
489 647 526 1045 76 810 -469 1544 -1260 1696 -22 4 -47 9 -55 10 -48 10 -264
21 -325 17z m226 -238 c196 -50 356 -211 449 -450 12 -33 26 -69 31 -80 9 -21
42 -154 55 -220 4 -22 8 -42 9 -45 0 -3 5 -34 9 -70 4 -36 10 -74 11 -84 25
-141 18 -632 -10 -826 -14 -96 -37 -215 -46 -238 -6 -15 -10 -29 -10 -32 0 -9
-12 -55 -16 -63 -3 -5 -22 26 -44 68 -139 275 -368 410 -678 399 -120 -4 -193
-22 -285 -71 -105 -56 -198 -161 -256 -291 l-24 -53 -12 35 c-13 37 -20 67
-34 151 -4 28 -11 64 -14 80 -3 17 -8 59 -11 95 -3 36 -8 96 -11 134 -8 90 -8
482 0 566 9 99 18 173 22 195 3 11 7 38 10 60 17 127 88 336 151 445 54 92
172 208 253 247 84 40 106 47 185 59 22 3 41 7 43 9 9 8 171 -6 223 -20z
m-140 -1901 c65 -25 102 -57 148 -125 42 -62 72 -145 87 -234 14 -85 8 -342
-7 -366 -12 -18 -84 -50 -144 -65 -11 -3 -61 -5 -111 -5 -259 0 -435 126 -464
334 -23 163 36 329 148 414 88 67 239 87 343 47z"/>
</g>
</svg>
