<?xml version="1.0" encoding="UTF-8"?>
<svg width="68px" height="68px" viewBox="0 0 68 68" version="1.1" xmlns="http://www.w3.org/2000/svg" xmlns:xlink="http://www.w3.org/1999/xlink">
    <!-- Generator: Sketch 53.2 (72643) - https://sketchapp.com -->
    <title>Untitled 3</title>
    <desc>Created with Sketch.</desc>
    <g id="Page-1" stroke="none" stroke-width="1" fill="none" fill-rule="evenodd">
        <circle id="Oval" fill="#000000" cx="34" cy="34" r="34"></circle>
        <path d="M52.256,47.864 C52.256,52.472 48.896,56.024 44,56.024 C39.008,56.024 36.128,52.856 36.128,49.64 L36.128,47.48 C34.976,47.672 34.256,47.72 33.104,47.72 C23.216,47.72 15.296,39.704 15.296,29.576 C15.296,19.4 23.12,11.624 33.44,11.624 C43.424,11.624 51.392,19.592 51.392,29.576 C51.392,35.768 48.32,41.528 43.232,44.888 C44.624,50.216 45.824,51.56 47.312,51.56 C48.8,51.56 49.424,50.552 49.664,47.864 L52.256,47.864 Z M41.792,29.24 C41.792,20.84 39.44,14.12 33.344,14.12 C27.776,14.12 24.896,19.112 24.896,28.808 C24.896,32.792 25.232,35.864 25.904,37.928 C27.248,34.472 29.504,33.08 32.816,33.08 C36.416,33.08 39.152,34.952 40.592,38.6 C41.36,36.584 41.792,33.08 41.792,29.24 Z M36.368,42.2 C36.368,38.072 34.832,35.816 32.048,35.816 C29.552,35.816 27.824,37.832 27.824,40.664 C27.824,43.4 29.984,45.224 33.2,45.224 C34.352,45.224 34.976,45.08 36.224,44.456 C36.32,43.4 36.368,42.68 36.368,42.2 Z" id="Shape" fill="#FFFFFF" fill-rule="nonzero"></path>
    </g>
</svg>