<?xml version="1.0" encoding="UTF-8"?>
<svg width="394px" height="45px" viewBox="0 0 394 45" version="1.1" xmlns="http://www.w3.org/2000/svg" xmlns:xlink="http://www.w3.org/1999/xlink">
  <path d="M38.064,18.288 C38.064,24.864 35.712,30.096 31.44,33.072 C28.464,35.136 24.624,36 18.576,36 L0.912,36 L0.912,33.408 L1.632,33.408 C4.128,33.408 5.136,33.216 5.568,32.688 C5.904,32.304 5.904,32.112 5.904,29.088 L5.904,8.256 C5.904,5.232 5.904,5.04 5.568,4.656 C5.136,4.128 4.128,3.936 1.632,3.936 L0.912,3.936 L0.912,1.344 L18,1.344 C24.768,1.344 28.32,2.016 31.2,3.936 C35.712,6.912 38.064,11.856 38.064,18.288 Z M28.512,18.192 C28.512,8.592 25.296,3.936 18.624,3.936 L17.424,3.936 C15.12,3.936 14.544,4.512 14.544,6.816 L14.544,30.288 C14.544,32.832 15.072,33.408 17.424,33.408 L18.432,33.408 C25.584,33.408 28.512,28.752 28.512,18.192 Z M71,35.472 L59.816,36 L59.816,32.064 C57.032,35.472 54.728,36.72 51.32,36.72 C48.056,36.72 45.512,35.232 44.216,32.592 C43.544,31.248 43.448,30.384 43.448,26.832 L43.448,20.736 C43.4,16.176 43.352,16.08 40.376,16.08 L39.608,16.08 L39.608,13.632 L50.984,13.296 L50.984,27.12 C50.984,30.768 51.992,32.256 54.392,32.256 C56.216,32.256 57.896,31.152 58.664,29.52 C59.288,28.32 59.48,26.976 59.48,24.576 L59.48,20.736 C59.48,16.272 59.336,16.08 56.408,16.08 L55.64,16.08 L55.64,13.632 L67.016,13.296 L67.016,30.816 C67.016,32.544 67.4,32.88 69.656,32.88 L71,32.88 L71,35.472 Z M100.24,24.24 C100.24,31.632 95.248,36.72 87.952,36.72 C84.352,36.72 81.904,35.568 79.648,32.832 L76.528,36.672 L74.176,36.672 C74.656,34.032 74.848,30.768 74.848,26.112 L74.848,8.256 C74.848,3.984 74.704,3.792 71.776,3.792 L70.864,3.792 L70.864,1.344 L82.384,0.624 L82.384,16.176 C84.352,13.68 86.608,12.576 89.824,12.576 C95.92,12.576 100.24,17.424 100.24,24.24 Z M91.936,24.816 C91.936,19.056 90.448,16.176 87.424,16.176 C84.064,16.176 82.336,19.44 82.336,25.824 C82.336,31.248 84.016,34.224 87.184,34.224 C90.304,34.224 91.936,31.008 91.936,24.816 Z M116.856,36 L116.856,33.552 L116.184,33.552 C115.272,33.552 114.312,33.408 113.976,33.216 C113.4,32.928 113.256,32.544 113.256,31.344 L113.256,0.624 L101.736,1.344 L101.736,3.792 L102.648,3.792 C105.576,3.792 105.72,3.984 105.72,8.256 L105.72,31.344 C105.72,33.264 105.672,33.552 102.552,33.552 L101.88,33.552 L101.88,36 L116.856,36 Z M133.232,36 L133.232,33.552 L132.464,33.552 C129.536,33.552 129.488,33.216 129.488,31.344 L129.488,13.296 L118.208,13.632 L118.208,16.08 L118.88,16.08 C121.808,16.08 121.952,16.32 121.952,20.592 L121.952,31.296 C121.952,33.216 121.904,33.552 118.88,33.552 L118.208,33.552 L118.208,36 L133.232,36 Z M129.104,5.76 C129.104,3.936 127.568,2.4 125.744,2.4 C123.872,2.4 122.336,3.936 122.336,5.76 C122.336,7.632 123.872,9.168 125.696,9.168 C127.568,9.168 129.104,7.68 129.104,5.76 Z M165.688,36 L165.688,33.552 L165.016,33.552 C161.944,33.552 161.896,33.264 161.896,31.296 L161.896,21.072 C161.896,18.096 161.368,16.272 160.072,14.88 C158.776,13.392 156.616,12.576 154.12,12.576 C150.328,12.576 147.928,13.968 145.576,17.52 L145.576,13.296 L134.584,13.632 L134.584,16.08 L135.304,16.08 C138.232,16.08 138.376,16.272 138.376,20.736 L138.376,31.296 C138.376,33.264 138.328,33.552 135.256,33.552 L134.584,33.552 L134.584,36 L149.224,36 L149.224,33.552 C146.392,33.552 145.912,33.216 145.912,31.344 L145.912,24.432 C145.912,22.272 146.104,21.024 146.68,19.872 C147.448,18.144 149.128,17.04 150.856,17.04 C153.112,17.04 154.36,18.672 154.36,21.744 L154.36,31.344 C154.36,33.216 153.88,33.552 151.048,33.552 L151.048,36 L165.688,36 Z M198.296,36 L198.296,33.408 L197.576,33.408 C195.08,33.408 194.024,33.216 193.592,32.688 C193.256,32.304 193.256,32.16 193.256,29.088 L193.256,8.256 C193.256,5.184 193.256,5.04 193.592,4.656 C194.024,4.128 195.08,3.936 197.576,3.936 L198.296,3.936 L198.296,1.344 L179.624,1.344 L179.624,3.936 L180.344,3.936 C182.84,3.936 183.848,4.128 184.28,4.656 C184.616,5.04 184.616,5.232 184.616,8.256 L184.616,29.088 C184.616,32.112 184.616,32.304 184.28,32.688 C183.848,33.216 182.84,33.408 180.344,33.408 L179.624,33.408 L179.624,36 L198.296,36 Z M230.656,36 L230.656,33.552 L229.984,33.552 C226.912,33.552 226.864,33.264 226.864,31.296 L226.864,21.072 C226.864,18.096 226.336,16.272 225.04,14.88 C223.744,13.392 221.584,12.576 219.088,12.576 C215.296,12.576 212.896,13.968 210.544,17.52 L210.544,13.296 L199.552,13.632 L199.552,16.08 L200.272,16.08 C203.2,16.08 203.344,16.272 203.344,20.736 L203.344,31.296 C203.344,33.264 203.296,33.552 200.224,33.552 L199.552,33.552 L199.552,36 L214.192,36 L214.192,33.552 C211.36,33.552 210.88,33.216 210.88,31.344 L210.88,24.432 C210.88,22.272 211.072,21.024 211.648,19.872 C212.416,18.144 214.096,17.04 215.824,17.04 C218.08,17.04 219.328,18.672 219.328,21.744 L219.328,31.344 C219.328,33.216 218.848,33.552 216.016,33.552 L216.016,36 L230.656,36 Z M269.256,36.864 C269.256,41.472 265.896,45.024 261,45.024 C256.008,45.024 253.128,41.856 253.128,38.64 L253.128,36.48 C251.976,36.672 251.256,36.72 250.104,36.72 C240.216,36.72 232.296,28.704 232.296,18.576 C232.296,8.4 240.12,0.624 250.44,0.624 C260.424,0.624 268.392,8.592 268.392,18.576 C268.392,24.768 265.32,30.528 260.232,33.888 C261.624,39.216 262.824,40.56 264.312,40.56 C265.8,40.56 266.424,39.552 266.664,36.864 L269.256,36.864 Z M258.792,18.24 C258.792,9.84 256.44,3.12 250.344,3.12 C244.776,3.12 241.896,8.112 241.896,17.808 C241.896,21.792 242.232,24.864 242.904,26.928 C244.248,23.472 246.504,22.08 249.816,22.08 C253.416,22.08 256.152,23.952 257.592,27.6 C258.36,25.584 258.792,22.08 258.792,18.24 Z M253.368,31.2 C253.368,27.072 251.832,24.816 249.048,24.816 C246.552,24.816 244.824,26.832 244.824,29.664 C244.824,32.4 246.984,34.224 250.2,34.224 C251.352,34.224 251.976,34.08 253.224,33.456 C253.32,32.4 253.368,31.68 253.368,31.2 Z M301.472,35.472 L301.472,32.88 L300.128,32.88 C297.872,32.88 297.488,32.544 297.488,30.816 L297.488,13.296 L286.112,13.632 L286.112,16.08 L286.88,16.08 C289.808,16.08 289.952,16.272 289.952,20.736 L289.952,24.576 C289.952,26.976 289.76,28.32 289.136,29.52 C288.368,31.152 286.688,32.256 284.864,32.256 C282.464,32.256 281.456,30.768 281.456,27.12 L281.456,13.296 L270.08,13.632 L270.08,16.08 L270.848,16.08 C273.824,16.08 273.872,16.176 273.92,20.736 L273.92,26.832 C273.92,30.384 274.016,31.248 274.688,32.592 C275.984,35.232 278.528,36.72 281.792,36.72 C285.2,36.72 287.504,35.472 290.288,32.064 L290.288,36 L301.472,35.472 Z M317.704,36 L317.704,33.552 L316.936,33.552 C314.008,33.552 313.96,33.216 313.96,31.344 L313.96,13.296 L302.68,13.632 L302.68,16.08 L303.352,16.08 C306.28,16.08 306.424,16.32 306.424,20.592 L306.424,31.296 C306.424,33.216 306.376,33.552 303.352,33.552 L302.68,33.552 L302.68,36 L317.704,36 Z M313.576,5.76 C313.576,3.936 312.04,2.4 310.216,2.4 C308.344,2.4 306.808,3.936 306.808,5.76 C306.808,7.632 308.344,9.168 310.168,9.168 C312.04,9.168 313.576,7.68 313.576,5.76 Z M342.912,17.424 C342.912,14.64 340.704,12.576 337.632,12.576 C333.936,12.576 331.392,14.688 329.664,19.104 L329.664,13.296 L318.96,13.632 L318.96,16.08 L319.68,16.08 C322.608,16.08 322.752,16.272 322.752,20.736 L322.752,31.296 C322.752,33.264 322.704,33.552 319.632,33.552 L318.96,33.552 L318.96,36 L334.992,36 L334.992,33.552 L333.936,33.552 C330.864,33.552 330.336,33.264 330.336,31.296 L330.336,28.128 C330.336,24.768 331.152,20.976 332.352,18.864 C333.36,17.088 334.368,16.224 336,15.744 C335.376,16.608 335.184,17.136 335.184,18 C335.184,20.064 336.72,21.552 338.784,21.552 C341.136,21.552 342.912,19.776 342.912,17.424 Z M367.928,29.088 C365.816,34.224 362.12,36.72 356.504,36.72 C348.536,36.72 343.544,31.776 343.544,24.864 C343.544,17.952 349.016,12.576 356.456,12.576 C363.464,12.576 367.928,17.136 367.928,24.288 L367.928,25.056 L351.848,25.056 C351.848,31.2 354.68,33.456 358.376,33.456 C361.496,33.456 363.656,31.872 365.576,28.128 L367.928,29.088 Z M360.392,20.88 C360.392,17.088 359.048,15.072 356.6,15.072 C353.72,15.072 351.896,17.856 351.896,22.416 L359.096,22.416 C360.056,22.416 360.392,22.032 360.392,20.88 Z M393.376,17.424 C393.376,14.64 391.168,12.576 388.096,12.576 C384.4,12.576 381.856,14.688 380.128,19.104 L380.128,13.296 L369.424,13.632 L369.424,16.08 L370.144,16.08 C373.072,16.08 373.216,16.272 373.216,20.736 L373.216,31.296 C373.216,33.264 373.168,33.552 370.096,33.552 L369.424,33.552 L369.424,36 L385.456,36 L385.456,33.552 L384.4,33.552 C381.328,33.552 380.8,33.264 380.8,31.296 L380.8,28.128 C380.8,24.768 381.616,20.976 382.816,18.864 C383.824,17.088 384.832,16.224 386.464,15.744 C385.84,16.608 385.648,17.136 385.648,18 C385.648,20.064 387.184,21.552 389.248,21.552 C391.6,21.552 393.376,19.776 393.376,17.424 Z" fill="#000000"></path>
</svg>
